<?xml version="1.0" standalone="no"?><!DOCTYPE svg PUBLIC "-//W3C//DTD SVG 1.1//EN" "http://www.w3.org/Graphics/SVG/1.1/DTD/svg11.dtd"><svg t="1759986120666" class="icon" viewBox="0 0 1024 1024" version="1.1" xmlns="http://www.w3.org/2000/svg" p-id="7188" xmlns:xlink="http://www.w3.org/1999/xlink" width="512" height="512"><path d="M0 0h1024v1024H0z" fill="#FFFFFF" fill-opacity=".01" p-id="7189"></path><path d="M525.83424 153.11872a56.28928 56.28928 0 0 0-21.54496 26.68544 65.536 65.536 0 0 0 1.72032 43.04896 71.39328 71.39328 0 0 0 25.42592 36.28032c6.17472 4.33152 13.312 7.09632 20.7872 8.04864a37.888 37.888 0 0 0 21.84192-3.7888 42.1376 42.1376 0 0 0 18.11456-19.79392 73.03168 73.03168 0 0 0 5.96992-26.59328 89.82528 89.82528 0 0 0-4.32128-34.43712 57.82528 57.82528 0 0 0-22.30272-29.696 43.56096 43.56096 0 0 0-17.6128-6.58432 37.5808 37.5808 0 0 0-18.67776 2.07872 46.70464 46.70464 0 0 0-9.46176 5.1712" fill="#FFFFFF" p-id="7190"></path><path d="M851.57888 619.58144a482.89792 482.89792 0 0 0-27.14624-94.4128 270.848 270.848 0 0 0-33.71008-63.7952c-14.19264-18.86208-32.07168-34.7648-45.95712-53.8624-7.3216-9.90208-13.52704-20.98176-21.1456-30.78144a872.62208 872.62208 0 0 1-9.07264-19.18976c-9.1648-19.968-17.48992-40.41728-28.37504-59.38176a190.84288 190.84288 0 0 0-5.30432-8.8064c-1.3824-18.26816-3.30752-36.51584-4.3008-54.82496a515.80928 515.80928 0 0 0-9.19552-109.5168 178.28864 178.28864 0 0 0-21.77024-48.88576 167.72096 167.72096 0 0 0-42.55744-45.85472 164.2496 164.2496 0 0 0-94.208-30.18752 147.38432 147.38432 0 0 0-71.424 16.49664 128.6144 128.6144 0 0 0-53.6576 55.87968 185.05728 185.05728 0 0 0-17.1008 76.07296c-0.84992 25.72288 1.536 51.456 2.48832 77.21984 0.98304 26.74688 0.45056 53.6064 2.6624 80.29184 0.72704 8.6016 1.72032 17.18272 1.67936 25.83552 0 4.29056-0.26624 8.63232-0.32768 12.92288l-0.33792 0.9216a548.352 548.352 0 0 1-38.59456 56.97536 2490.69568 2490.69568 0 0 1-29.68576 37.04832 223.97952 223.97952 0 0 0-32.5632 47.99488 342.80448 342.80448 0 0 0-14.17216 46.44864l-0.36864 1.31072a360.87808 360.87808 0 0 1-20.55168 52.7872c-0.75776 1.5872-1.54624 3.29728-2.31424 4.75136a933.48864 933.48864 0 0 1-15.43168 30.3104l-6.17472 11.5712a187.904 187.904 0 0 0-10.32192 21.504 71.168 71.168 0 0 0-3.82976 13.70112 72.36608 72.36608 0 0 0 1.8432 29.696c0.63488 2.41664 1.36192 4.8128 2.18112 7.17824 2.48832 7.1168 5.48864 14.03904 8.98048 20.71552 1.57696 3.072 3.29728 6.10304 4.9152 9.1136l1.4848 2.17088c1.6384 2.85696 3.33824 5.6832 5.0688 8.47872l0.2048 0.33792c1.9968 3.15392 4.06528 6.26688 6.20544 9.3184l0.29696 0.44032c2.17088 3.0208 4.37248 6.02112 6.59456 9.00096a238.66368 238.66368 0 0 0 45.32224 90.28608c-3.29728 5.77536-6.2976 11.61216-9.6256 17.3056a261.98016 261.98016 0 0 0-28.63104 54.1696 65.1264 65.1264 0 0 0-2.18112 30.3616c1.7408 10.19904 7.04512 19.44576 14.97088 26.08128 5.34528 4.096 11.53024 6.9632 18.11456 8.37632a80.73216 80.73216 0 0 0 19.98848 1.76128 325.40672 325.40672 0 0 0 74.78272-14.7456 833.20832 833.20832 0 0 1 44.09344-10.30144 262.79936 262.79936 0 0 1 46.87872-6.38976c3.8912 0 7.7824 0 11.64288-0.4096 10.72128 1.20832 21.504 1.59744 32.28672 1.19808l3.96288-0.22528c2.80576 0.32768 5.61152 0.49152 8.40704 0.65536a610.4064 610.4064 0 0 1 56.61696 5.77536 550.6048 550.6048 0 0 1 49.12128 9.69728c25.0368 7.5776 50.7904 12.52352 76.8512 14.7456a83.47648 83.47648 0 0 0 20.5312-1.61792 45.568 45.568 0 0 0 18.59584-8.50944 43.60192 43.60192 0 0 0 15.01184-26.13248 64.9216 64.9216 0 0 0-2.24256-30.4128 252.1088 252.1088 0 0 0-29.16352-53.98528c-4.15744-7.00416-8.01792-14.16192-12.1344-21.11488a374.36416 374.36416 0 0 0 46.47936-64.55296 63.36512 63.36512 0 0 0 23.48032-2.9696 98.46784 98.46784 0 0 0 49.47968-37.10976c3.6864-5.14048 6.49216-10.86464 8.28416-16.92672a112.128 112.128 0 0 0 15.83104-40.31488 201.6256 201.6256 0 0 0-1.76128-71.68z" fill="#020204" p-id="7191"></path><path d="M412.02688 295.8848c-3.52256 4.59776-6.0416 9.89184-7.35232 15.53408a82.33984 82.33984 0 0 0-2.1504 17.152 151.72608 151.72608 0 0 1-2.8672 34.37568 105.73824 105.73824 0 0 1-17.78688 32.28672 195.95264 195.95264 0 0 0-31.10912 55.808 99.0208 99.0208 0 0 0-3.584 38.47168 407.07072 407.07072 0 0 0-35.82976 64.75776 353.97632 353.97632 0 0 0-29.1328 107.9296 275.52768 275.52768 0 0 0 19.39456 134.656 220.6208 220.6208 0 0 0 57.46688 80.05632 196.62848 196.62848 0 0 0 41.984 27.87328 188.23168 188.23168 0 0 0 168.67328-1.64864 327.91552 327.91552 0 0 0 71.5776-56.576 249.33376 249.33376 0 0 0 36.29056-41.23648 231.39328 231.39328 0 0 0 30.3104-100.67968 328.40704 328.40704 0 0 0-19.3536-181.98528 200.86784 200.86784 0 0 0-36.29056-52.15232 285.7984 285.7984 0 0 0-23.0912-77.64992c-8.18176-17.74592-18.14528-34.6624-25.73312-52.77696-3.10272-7.39328-5.80608-14.98112-9.2672-22.20032a66.57024 66.57024 0 0 0-13.52704-19.79392 55.73632 55.73632 0 0 0-21.1456-12.27776 92.03712 92.03712 0 0 0-24.2176-4.15744c-16.4864-0.8192-32.98304 1.32096-49.28512 0.6656-13.18912-0.53248-26.08128-2.80576-39.14752-2.048a60.35456 60.35456 0 0 0-19.13856 4.02432 38.54336 38.54336 0 0 0-15.72864 11.37664m5.3248-142.55104a26.6752 26.6752 0 0 0-16.49664 7.35232c-4.43392 4.3008-7.7312 9.6256-9.59488 15.50336a93.88032 93.88032 0 0 0-2.1504 36.5568c0.22528 11.14112 2.17088 22.17984 5.77536 32.72704 2.01728 5.19168 5.03808 9.94304 8.87808 13.98784 3.87072 4.03456 8.77568 6.93248 14.1824 8.37632 5.09952 1.2288 10.4448 1.024 15.43168-0.5632a33.47456 33.47456 0 0 0 13.2096-8.04864c5.35552-5.45792 9.216-12.20608 11.20256-19.58912 1.97632-7.3728 2.85696-14.98112 2.6112-22.59968a94.208 94.208 0 0 0-4.352-28.1088 63.2832 63.2832 0 0 0-14.3872-24.41216c-3.1744-3.34848-6.90176-6.144-11.01824-8.2432a27.136 27.136 0 0 0-13.35296-2.93888m108.58496 0a56.28928 56.28928 0 0 0-21.54496 26.68544 65.536 65.536 0 0 0 1.72032 43.04896 71.39328 71.39328 0 0 0 25.42592 36.28032c6.17472 4.33152 13.312 7.09632 20.7872 8.04864a37.888 37.888 0 0 0 21.84192-3.7888 42.1376 42.1376 0 0 0 18.11456-19.79392 73.03168 73.03168 0 0 0 5.96992-26.59328 89.82528 89.82528 0 0 0-4.32128-34.43712 57.82528 57.82528 0 0 0-22.30272-29.696 43.56096 43.56096 0 0 0-17.6128-6.58432 37.5808 37.5808 0 0 0-18.67776 2.07872 46.70464 46.70464 0 0 0-9.46176 5.1712" fill="#FFFFFF" p-id="7192"></path><path d="M547.9424 182.016a22.17984 22.17984 0 0 0-10.16832 3.29728 26.7264 26.7264 0 0 0-7.72096 7.51616 38.81984 38.81984 0 0 0-6.16448 20.45952c-0.28672 5.4272 0.45056 10.8544 2.17088 15.99488 1.77152 5.12 4.88448 9.68704 9.0112 13.19936 4.3008 3.56352 9.65632 5.64224 15.23712 5.9392a25.52832 25.52832 0 0 0 15.70816-4.49536 28.16 28.16 0 0 0 8.64256-9.89184c2.048-3.93216 3.3792-8.20224 3.92192-12.60544a38.88128 38.88128 0 0 0-3.6864-22.76352 31.86688 31.86688 0 0 0-16.96768-15.32928 23.97184 23.97184 0 0 0-9.89184-1.55648" fill="#020204" p-id="7193"></path><path d="M417.30048 153.11872a26.6752 26.6752 0 0 0-16.4864 7.35232c-4.43392 4.3008-7.7312 9.6256-9.59488 15.50336a93.88032 93.88032 0 0 0-2.1504 36.5568c0.22528 11.14112 2.17088 22.17984 5.77536 32.72704 2.01728 5.19168 5.03808 9.94304 8.87808 13.98784 3.87072 4.03456 8.77568 6.93248 14.1824 8.37632 5.09952 1.2288 10.4448 1.024 15.43168-0.5632a33.47456 33.47456 0 0 0 13.2096-8.04864c5.35552-5.45792 9.216-12.20608 11.20256-19.58912 1.97632-7.3728 2.85696-14.98112 2.6112-22.59968a94.208 94.208 0 0 0-4.352-28.1088 63.2832 63.2832 0 0 0-14.3872-24.41216c-3.1744-3.34848-6.90176-6.144-11.01824-8.2432a27.136 27.136 0 0 0-13.35296-2.93888" fill="#FFFFFF" p-id="7194"></path><path d="M402.49344 203.90912a46.31552 46.31552 0 0 0 1.32096 23.0912c1.81248 4.9152 4.58752 9.40032 8.18176 13.19936 2.2528 2.54976 4.95616 4.64896 7.9872 6.1952 3.05152 1.55648 6.5536 1.9968 9.89184 1.25952 3.04128-0.84992 5.7344-2.65216 7.65952-5.15072a25.1904 25.1904 0 0 0 4.18816-8.3456 46.3872 46.3872 0 0 0-0.43008-27.27936 35.5328 35.5328 0 0 0-10.42432-16.9472 20.6336 20.6336 0 0 0-8.448-4.42368 14.72512 14.72512 0 0 0-9.5744 0.768 16.24064 16.24064 0 0 0-7.38304 7.45472c-1.55648 3.21536-2.59072 6.656-3.072 10.1888" fill="#020204" p-id="7195"></path><path d="M388.07552 300.07296c0.2048 1.024 0.59392 1.9968 1.1264 2.89792 0.99328 1.55648 2.31424 2.87744 3.85024 3.8912 1.45408 1.05472 3.01056 1.91488 4.52608 2.8672a81.68448 81.68448 0 0 1 20.41856 19.79392 128.2048 128.2048 0 0 0 25.12896 28.53888c7.4752 5.09952 16.128 8.192 25.1392 9.0112a82.24768 82.24768 0 0 0 31.27296-3.64544c9.4208-2.7136 18.44224-6.67648 26.8288-11.776a280.2176 280.2176 0 0 1 46.53056-30.5152c3.82976-1.37216 7.7824-2.39616 11.44832-4.11648a18.0224 18.0224 0 0 0 8.9088-7.9872c1.30048-3.67616 2.03776-7.53664 2.18112-11.43808 0.58368-4.12672 1.90464-8.15104 2.63168-12.2368 0.95232-4.096 0.6144-8.3968-0.95232-12.30848a15.91296 15.91296 0 0 0-7.22944-7.18848 24.71936 24.71936 0 0 0-9.89184-2.47808c-6.912 0.2048-13.80352 0.88064-20.61312 2.048-9.13408 0.8192-18.30912-0.32768-27.48416 0-11.3664 0.33792-22.6304 2.90816-33.9968 3.29728-13.0048 0.63488-25.96864-1.3824-38.9632-1.91488a80.44544 80.44544 0 0 0-16.86528 0.79872 38.94272 38.94272 0 0 0-15.62624 6.0416c-4.29056 3.42016-8.3968 7.0656-12.27776 10.94656-2.03776 1.8432-4.3008 3.39968-6.7584 4.64896-2.4576 1.23904-5.19168 1.88416-7.94624 1.87392a12.88192 12.88192 0 0 0-4.22912 0 5.71392 5.71392 0 0 0-2.2016 1.3824c-0.6144 0.63488-1.1776 1.3312-1.64864 2.08896a36.2496 36.2496 0 0 0-3.01056 5.376" fill="#D99A03" p-id="7196"></path><path d="M416.7168 271.3088c-4.59776 2.7648-9.07264 5.71392-13.43488 8.83712-2.37568 1.4336-4.36224 3.44064-5.76512 5.8368a13.7216 13.7216 0 0 0-1.05472 5.7344c0.1024 1.96608 0.1024 3.92192 0 5.87776-0.17408 1.32096-0.53248 2.64192-0.60416 3.9936a6.59456 6.59456 0 0 0 0.2048 1.97632 4.16768 4.16768 0 0 0 0.95232 1.7408c0.6144 0.6144 1.39264 1.06496 2.2528 1.29024 0.8192 0.26624 1.66912 0.39936 2.52928 0.59392 4.01408 1.14688 7.68 3.2768 10.6496 6.20544 3.11296 2.7648 5.87776 5.89824 9.1136 8.54016a51.2 51.2 0 0 0 31.56992 10.22976 142.336 142.336 0 0 0 33.3824-4.64896 201.90208 201.90208 0 0 0 25.30304-7.02464c12.76928-4.7616 24.576-11.78624 34.83648-20.74624 4.42368-4.29056 9.17504-8.22272 14.21312-11.776 4.61824-2.90816 9.90208-4.82304 14.4896-7.59808a9.29792 9.29792 0 0 0 1.20832-0.8192 3.584 3.584 0 0 0 0.9216-1.1264 3.29728 3.29728 0 0 0 0-2.46784 6.656 6.656 0 0 0-1.024-2.07872 14.9504 14.9504 0 0 0-1.93536-1.97632 31.08864 31.08864 0 0 0-18.01216-6.2464c-6.59456-0.49152-12.96384 0-19.33312-1.21856-5.9392-1.26976-11.776-2.9696-17.47968-5.07904-6.07232-1.96608-12.288-3.4816-18.57536-4.5056a122.71616 122.71616 0 0 0-44.6976 1.08544 130.59072 130.59072 0 0 0-39.58784 15.43168" fill="#604405" p-id="7197"></path><path d="M415.26272 255.70304a81.95072 81.95072 0 0 0-17.68448 16.128 38.17472 38.17472 0 0 0-6.99392 11.74528 88.832 88.832 0 0 0-2.27328 10.55744 19.63008 19.63008 0 0 0-0.59392 3.9936c0 0.6656 0.1024 1.3312 0.3072 1.97632a4.5056 4.5056 0 0 0 1.024 1.7408c0.8192 0.78848 1.8432 1.31072 2.9696 1.49504 1.08544 0.22528 2.2016 0.256 3.29728 0.38912 4.99712 0.80896 9.728 2.816 13.78304 5.86752 4.15744 2.8672 7.9872 6.17472 12.2368 8.87808 9.6256 5.7344 20.57216 8.8576 31.76448 9.03168 11.14112 0.2048 22.272-0.90112 33.15712-3.29728a149.1968 149.1968 0 0 0 25.56928-7.18848 153.43616 153.43616 0 0 0 34.82624-20.74624c4.98688-3.62496 9.728-7.55712 14.22336-11.776 1.51552-1.45408 2.9696-2.9696 4.58752-4.3008 1.5872-1.37216 3.42016-2.43712 5.40672-3.1232 3.09248-0.8192 6.33856-0.8704 9.46176-0.16384 2.33472 0.512 4.73088 0.78848 7.12704 0.8192 1.19808 0.02048 2.39616-0.17408 3.5328-0.55296a7.17824 7.17824 0 0 0 2.89792-2.08896 6.93248 6.93248 0 0 0 1.51552-4.38272 8.9088 8.9088 0 0 0-1.28-4.48512 15.34976 15.34976 0 0 0-7.26016-5.8368 71.51616 71.51616 0 0 0-12.40064-3.6352 178.03264 178.03264 0 0 1-37.31456-13.6192c-5.89824-2.93888-11.63264-6.17472-17.47968-9.30816a103.0144 103.0144 0 0 0-18.57536-8.2432 73.0112 73.0112 0 0 0-44.6976 2.00704 95.70304 95.70304 0 0 0-41.20576 28.20096" fill="#F5BD0C" p-id="7198"></path><path d="M489.6768 237.58848c0.79872 2.57024 4.9152 2.1504 7.29088 3.29728 2.37568 1.15712 3.76832 3.30752 6.10304 3.50208 2.34496 0.2048 5.74464-0.78848 6.0416-3.00032 0.39936-2.93888-3.8912-4.8128-6.59456-5.86752a14.09024 14.09024 0 0 0-11.44832-0.23552c-0.79872 0.4608-1.65888 1.45408-1.3824 2.304z m-39.35232-1.45408c-3.072-0.98304-8.11008 4.39296-6.59456 7.168 0.4608 0.75776 1.8432 1.71008 2.7648 1.20832 0.9216-0.49152 2.57024-3.55328 4.096-4.608 1.15712-0.75776 0.9216-3.39968-0.26624-3.76832z" fill="#CD8907" p-id="7199"></path><path d="M940.05248 874.74176a58.4704 58.4704 0 0 1-9.69728 16.3328 105.7792 105.7792 0 0 1-34.07872 24.1664 675.56352 675.56352 0 0 0-63.4368 33.4848 260.8128 260.8128 0 0 0-37.40672 30.11584 299.5712 299.5712 0 0 1-30.4128 27.61728 87.48032 87.48032 0 0 1-37.86752 16.0256 90.78784 90.78784 0 0 1-49.2544-7.45472 59.10528 59.10528 0 0 1-27.41248-21.44256 64.41984 64.41984 0 0 1-7.68-34.17088 355.84 355.84 0 0 1 7.48544-62.2592c3.03104-17.11104 5.9392-34.26304 7.7824-51.57888 3.19488-31.49824 3.55328-63.21152 1.09568-94.7712a71.8336 71.8336 0 0 1 0-15.872 20.15232 20.15232 0 0 1 20.52096-18.80064c4.89472-0.08192 9.78944 0.32768 14.61248 1.20832 11.45856 1.3312 22.8352 3.30752 34.07872 5.90848 7.02464 1.8432 13.88544 4.32128 20.91008 6.2464a96.03072 96.03072 0 0 0 36.0448 3.29728 278.91712 278.91712 0 0 1 38.66624-6.07232 57.2416 57.2416 0 0 1 15.80032 2.7648c5.30432 1.44384 10.17856 4.16768 14.19264 7.92576 2.88768 3.03104 5.12 6.62528 6.59456 10.5472 2.21184 5.79584 3.56352 11.88864 4.02432 18.0736 0.18432 5.5296 0.65536 11.02848 1.42336 16.49664 1.96608 8.8576 6.144 17.07008 12.1344 23.88992 5.9904 6.656 12.544 12.8 19.59936 18.3296 6.89152 5.81632 13.824 11.55072 21.23776 16.49664 3.50208 2.37568 7.09632 4.62848 10.3936 7.22944 3.3792 2.54976 6.2464 5.7344 8.41728 9.35936 2.78528 5.0176 3.61472 10.89536 2.33472 16.4864" fill="#F5BD0C" p-id="7200"></path><path d="M940.05248 874.74176a58.4704 58.4704 0 0 1-9.69728 16.3328 105.7792 105.7792 0 0 1-34.07872 24.1664 675.56352 675.56352 0 0 0-63.4368 33.4848 260.8128 260.8128 0 0 0-37.40672 30.11584 299.5712 299.5712 0 0 1-30.4128 27.61728 87.48032 87.48032 0 0 1-37.86752 16.0256 90.78784 90.78784 0 0 1-49.2544-7.45472 59.10528 59.10528 0 0 1-27.41248-21.44256 64.41984 64.41984 0 0 1-7.68-34.17088 355.84 355.84 0 0 1 7.48544-62.2592c3.03104-17.11104 5.9392-34.26304 7.7824-51.57888 3.19488-31.49824 3.55328-63.21152 1.09568-94.7712a71.8336 71.8336 0 0 1 0-15.872 20.15232 20.15232 0 0 1 20.52096-18.80064c4.89472-0.08192 9.78944 0.32768 14.61248 1.20832 11.45856 1.3312 22.8352 3.30752 34.07872 5.90848 7.02464 1.8432 13.88544 4.32128 20.91008 6.2464a96.03072 96.03072 0 0 0 36.0448 3.29728 278.91712 278.91712 0 0 1 38.66624-6.07232 57.2416 57.2416 0 0 1 15.80032 2.7648c5.30432 1.44384 10.17856 4.16768 14.19264 7.92576 2.88768 3.03104 5.12 6.62528 6.59456 10.5472 2.21184 5.79584 3.56352 11.88864 4.02432 18.0736 0.18432 5.5296 0.65536 11.02848 1.42336 16.49664 1.96608 8.8576 6.144 17.07008 12.1344 23.88992 5.9904 6.656 12.544 12.8 19.59936 18.3296 6.89152 5.81632 13.824 11.55072 21.23776 16.49664 3.50208 2.37568 7.09632 4.62848 10.3936 7.22944 3.3792 2.54976 6.2464 5.7344 8.41728 9.35936 2.78528 5.0176 3.61472 10.89536 2.33472 16.4864M222.1568 699.42272a31.31392 31.31392 0 0 1 17.58208-1.61792 43.40736 43.40736 0 0 1 16.4864 6.9632 103.71072 103.71072 0 0 1 24.18688 26.09152c16.09728 22.15936 31.56992 44.78976 45.6192 68.28032 11.38688 19.06688 21.84192 38.7584 35.00032 56.66816 8.58112 11.6736 18.2784 22.528 26.92096 34.18112a117.78048 117.78048 0 0 1 20.1216 38.2976 76.76928 76.76928 0 0 1-5.60128 54.94784 72.51968 72.51968 0 0 1-26.78784 28.73344 68.99712 68.99712 0 0 1-37.9392 9.89184 186.0096 186.0096 0 0 1-60.13952-18.96448c-39.87456-15.89248-83.22048-20.87936-124.32384-33.24928-12.63616-3.7888-25.06752-8.31488-37.77536-11.80672a111.7184 111.7184 0 0 1-16.72192-5.34528c-5.4272-2.27328-10.02496-6.144-13.19936-11.07968a25.06752 25.06752 0 0 1-3.29728-13.2096c0.1536-4.5056 1.05472-8.97024 2.67264-13.18912 3.10272-8.50944 8.0896-16.2304 11.44832-24.63744 5.0176-13.9776 6.98368-28.8768 5.7344-43.6736-0.7168-14.78656-3.29728-29.42976-4.15744-44.20608a76.47232 76.47232 0 0 1 0.63488-19.79392 29.696 29.696 0 0 1 24.96512-25.3952 80.65024 80.65024 0 0 1 18.20672-1.15712c6.0928 0.31744 12.1856 0.31744 18.2784 0a41.84064 41.84064 0 0 0 17.44896-4.88448 41.34912 41.34912 0 0 0 12.53376-11.83744c3.28704-4.77184 6.28736-9.728 8.97024-14.848 2.69312-5.13024 5.85728-10.00448 9.44128-14.5408a35.9424 35.9424 0 0 1 13.58848-10.56768" fill="#F5BD0C" p-id="7201"></path><path d="M222.1568 699.41248a31.31392 31.31392 0 0 1 17.58208-1.61792 43.40736 43.40736 0 0 1 16.4864 6.9632 103.71072 103.71072 0 0 1 24.18688 26.08128c16.09728 22.1696 31.56992 44.78976 45.6192 68.29056 11.38688 19.05664 21.84192 38.7584 35.00032 56.66816 8.58112 11.6736 18.2784 22.528 26.92096 34.17088a117.78048 117.78048 0 0 1 20.1216 38.2976 76.76928 76.76928 0 0 1-5.60128 54.95808 72.51968 72.51968 0 0 1-26.78784 28.73344 68.99712 68.99712 0 0 1-37.9392 9.89184 186.0096 186.0096 0 0 1-60.13952-18.96448c-39.87456-15.90272-83.22048-20.87936-124.32384-33.24928-12.63616-3.7888-25.06752-8.31488-37.77536-11.81696a111.7184 111.7184 0 0 1-16.72192-5.33504c-5.4272-2.27328-10.02496-6.144-13.19936-11.08992a25.06752 25.06752 0 0 1-3.29728-13.18912c0.1536-4.51584 1.05472-8.98048 2.67264-13.19936 3.10272-8.50944 8.0896-16.2304 11.44832-24.63744 5.0176-13.9776 6.98368-28.8768 5.7344-43.6736-0.7168-14.78656-3.29728-29.42976-4.15744-44.20608a76.47232 76.47232 0 0 1 0.63488-19.79392 29.696 29.696 0 0 1 24.96512-25.3952 80.65024 80.65024 0 0 1 18.20672-1.16736c6.0928 0.32768 12.1856 0.32768 18.2784 0a41.84064 41.84064 0 0 0 17.44896-4.87424 41.34912 41.34912 0 0 0 12.53376-11.84768c3.28704-4.7616 6.28736-9.71776 8.97024-14.848 2.69312-5.12 5.85728-9.99424 9.44128-14.5408a35.9424 35.9424 0 0 1 13.58848-10.55744" fill="#F5BD0C" p-id="7202"></path><path d="M230.8608 709.07904a26.99264 26.99264 0 0 1 15.94368-1.05472c5.25312 1.28 10.16832 3.6864 14.40768 7.05536a91.15648 91.15648 0 0 1 20.15232 25.0368c13.69088 22.1696 27.05408 44.544 39.58784 67.39968a446.48448 446.48448 0 0 0 30.45376 50.56512c7.7824 10.48576 16.6912 20.09088 24.63744 30.44352a102.8096 102.8096 0 0 1 18.57536 34.2016 67.39968 67.39968 0 0 1-5.15072 49.02912 65.31072 65.31072 0 0 1-24.73984 25.856 63.63136 63.63136 0 0 1-34.73408 8.58112 194.33472 194.33472 0 0 1-55.06048-17.0496c-34.79552-12.6464-72.56064-14.32576-108.19584-24.18688-12.8-3.46112-25.26208-8.11008-38.13376-11.34592a116.09088 116.09088 0 0 1-16.896-4.88448c-5.5296-2.07872-10.24-5.89824-13.4144-10.88512a23.82848 23.82848 0 0 1-2.90816-12.5952c0.22528-4.37248 1.16736-8.68352 2.80576-12.73856 3.09248-8.15104 7.9872-15.53408 11.1104-23.68512a91.36128 91.36128 0 0 0 4.4544-39.02464c-0.88064-13.18912-3.29728-26.2144-3.95264-39.38304a67.2768 67.2768 0 0 1 0.78848-17.6128c1.05472-5.84704 3.80928-11.25376 7.91552-15.54432a30.8224 30.8224 0 0 1 17.152-7.94624 79.4624 79.4624 0 0 1 19.13856 0c6.35904 0.768 12.75904 1.0752 19.16928 0.89088a35.9424 35.9424 0 0 0 18.14528-5.53984 36.27008 36.27008 0 0 0 11.18208-13.19936c2.59072-5.15072 4.864-10.46528 6.79936-15.90272 1.9456-5.45792 4.5056-10.67008 7.64928-15.53408 3.21536-4.93568 7.80288-8.8064 13.19936-11.14112" fill="#F5BD0C" p-id="7203"></path></svg>